HIERARCHY
ROOT Hips
{
 OFFSET 0.000000 0.000000 0.000000
 CHANNELS 6 Xposition Yposition Zposition Yrotation Xrotation Zrotation
 JOINT Chest
 {
  OFFSET 0.000000 9.581000 -0.001100
  CHANNELS 3 Yrotation Xrotation Zrotation
  JOINT Chest2
  {
   OFFSET 0.000000 9.561100 0.002200
   CHANNELS 3 Yrotation Xrotation Zrotation
   JOINT Chest3
   {
    OFFSET 0.000000 9.521100 0.000000
    CHANNELS 3 Yrotation Xrotation Zrotation
    JOINT Chest4
    {
     OFFSET 0.000000 9.511400 0.000000
     CHANNELS 3 Yrotation Xrotation Zrotation
     JOINT Neck
     {
      OFFSET 0.000000 14.375100 0.000000
      CHANNELS 3 Yrotation Xrotation Zrotation
      JOINT Head
      {
       OFFSET 0.000000 8.901200 0.004600
       CHANNELS 3 Yrotation Xrotation Zrotation
       End Site
       {
        OFFSET 0.000000 16.962200 0.002400
       }
      }
     }
     JOINT RightCollar
     {
      OFFSET -2.920100 9.518800 0.000000
      CHANNELS 3 Yrotation Xrotation Zrotation
      JOINT RightShoulder
      {
       OFFSET -13.664500 0.000000 0.000000
       CHANNELS 3 Yrotation Xrotation Zrotation
       JOINT RightElbow
       {
        OFFSET 0.000000 -29.999200 0.000000
        CHANNELS 3 Yrotation Xrotation Zrotation
        JOINT RightWrist
        {
         OFFSET 0.000000 -24.253600 0.000000
         CHANNELS 3 Yrotation Xrotation Zrotation
         End Site
         {
          OFFSET 0.000000 -17.918900 0.000000
         }
        }
       }
      }
     }
     JOINT LeftCollar
     {
      OFFSET 2.920100 9.518800 0.000000
      CHANNELS 3 Yrotation Xrotation Zrotation
      JOINT LeftShoulder
      {
       OFFSET 13.664500 0.000000 0.000000
       CHANNELS 3 Yrotation Xrotation Zrotation
       JOINT LeftElbow
       {
        OFFSET 0.000000 -29.999200 0.000000
        CHANNELS 3 Yrotation Xrotation Zrotation
        JOINT LeftWrist
        {
         OFFSET 0.000000 -24.253600 0.000000
         CHANNELS 3 Yrotation Xrotation Zrotation
         End Site
         {
          OFFSET 0.000000 -17.918900 0.000000
         }
        }
       }
      }
     }
    }
   }
  }
 }
 JOINT RightHip
 {
  OFFSET -7.797300 0.005300 0.000500
  CHANNELS 3 Yrotation Xrotation Zrotation
  JOINT RightKnee
  {
   OFFSET 0.000000 -40.663400 -0.000500
   CHANNELS 3 Yrotation Xrotation Zrotation
   JOINT RightAnkle
   {
    OFFSET 0.000000 -39.523700 -0.000900
    CHANNELS 3 Yrotation Xrotation Zrotation
    JOINT RightToe
    {
     OFFSET 0.000000 -6.418000 14.485300
     CHANNELS 3 Yrotation Xrotation Zrotation
     End Site
     {
      OFFSET 0.000000 -1.465200 6.326400
     }
    }
   }
  }
 }
 JOINT LeftHip
 {
  OFFSET 7.797300 0.005300 0.000500
  CHANNELS 3 Yrotation Xrotation Zrotation
  JOINT LeftKnee
  {
   OFFSET 0.000000 -40.663400 -0.000500
   CHANNELS 3 Yrotation Xrotation Zrotation
   JOINT LeftAnkle
   {
    OFFSET 0.000000 -39.523700 -0.000900
    CHANNELS 3 Yrotation Xrotation Zrotation
    JOINT LeftToe
    {
     OFFSET 0.000000 -6.418000 14.485300
     CHANNELS 3 Yrotation Xrotation Zrotation
     End Site
     {
      OFFSET 0.000000 -1.465200 6.326400
     }
    }
   }
  }
 }
}
MOTION
Frames: 15
Frame Time: 0.008333
0.000000 86.422400 0.000000 0.000000 -5.767877 0.000000 0.000000 11.653817 0.000000 0.000000 -5.885947 0.000000 0.000000 -0.000000 0.000000 0.000000 -0.000000 0.000000 0.000000 12.528835 0.000000 0.000000 0.711642 0.000000 0.000000 -0.000000 0.000000 0.000000 0.000000 -90.000000 0.000000 -2.309062 0.000000 0.000000 2.309062 0.000000 0.000000 -0.000000 0.000000 0.000000 -0.000000 90.000000 0.000000 -2.309062 0.000000 0.000000 2.309062 0.000000 0.000000 8.520406 0.000000 0.000000 1.905762 0.000000 -0.000000 -4.658285 0.000000 0.000000 -0.000000 0.000000 0.000000 8.520406 0.000000 0.000000 1.905762 0.000000 -0.000000 -4.658285 0.000000 0.000000 -0.000000 0.000000
-13.803207 126.913354 26.980868 -166.473216 -49.683338 -2.807754 -2.979693 26.243760 -0.086819 -0.506481 4.408637 0.069476 -0.770535 6.992453 0.109458 -2.371964 21.522500 0.056642 -1.319845 16.853503 -1.538516 -0.993980 -8.032276 -1.309967 1.082077 3.915805 1.636511 3.942028 -7.779190 -9.606347 -92.507858 -60.030134 142.673174 4.728329 19.787943 -13.052438 -7.865391 0.414469 -0.315915 -5.418909 -3.954388 10.704977 81.965280 -61.802407 -122.369220 -6.800889 -18.684335 29.260955 -6.128336 -22.958310 -7.141732 -5.156700 78.733304 -4.720653 7.069337 -15.899927 2.538631 -0.000744 -0.002460 -0.000329 5.900889 6.122608 1.092722 128.500893 65.119208 148.235512 6.410935 12.308912 -0.165870 -0.005115 0.000047 -0.002266
-13.801414 126.912998 26.980551 -166.484621 -49.676992 -2.804531 -2.991432 26.246637 -0.100823 -0.510467 4.411253 0.068673 -0.773794 6.995195 0.104853 -2.412974 21.535289 0.019535 -1.124007 16.757185 -1.461525 -0.834823 -8.128142 -1.277271 1.128320 3.895990 1.643249 3.923336 -7.780092 -9.595081 -92.546513 -60.067079 142.691152 4.714666 19.770649 -13.035743 -7.848384 0.379941 -0.330446 -5.443447 -4.122039 10.579366 81.182668 -61.551056 -121.860071 -6.551639 -18.590401 29.323931 -6.125999 -22.964938 -7.127570 -5.181358 78.732107 -4.748083 7.078751 -15.896794 2.532000 -0.000561 -0.002718 -0.000249 5.895077 6.115365 1.095271 128.494305 65.118263 148.235380 6.405338 12.340430 -0.233871 0.000050 -0.000331 0.000022
-13.801051 126.912109 26.980914 -166.513029 -49.666838 -2.777877 -3.000594 26.245521 -0.124761 -0.512951 4.414106 0.066079 -0.777604 6.998219 0.100216 -2.389727 21.524465 0.023796 -1.001746 16.684710 -1.406876 -0.682133 -8.223046 -1.246809 1.074777 3.906290 1.613548 3.964688 -7.792691 -9.567429 -92.546234 -60.070860 142.700147 4.728708 19.775992 -13.057334 -7.896191 0.365273 -0.364868 -5.490357 -4.280110 10.485451 80.375566 -61.278705 -121.351582 -6.296967 -18.507865 29.371836 -6.107228 -22.978588 -7.126465 -5.179705 78.733112 -4.742914 7.069090 -15.893517 2.522780 -0.001641 -0.002097 -0.000727 5.899877 6.104760 1.089330 128.507409 65.118597 148.239952 6.413711 12.359178 -0.274288 -0.000606 0.001274 -0.000269
-13.800209 126.912469 26.980106 -166.521723 -49.665473 -2.769795 -3.039434 26.263207 -0.158414 -0.485591 4.401517 0.074062 -0.794320 7.008339 0.092514 -2.406676 21.525444 0.004443 -0.848097 16.602297 -1.345516 -0.538174 -8.316003 -1.217977 1.087277 3.898645 1.609334 3.946411 -7.794797 -9.558051 -92.564213 -60.083207 142.724451 4.725653 19.780647 -13.036541 -7.879737 0.343979 -0.370650 -5.597980 -4.428207 10.405731 79.575594 -60.995406 -120.854579 -6.041367 -18.433338 29.389561 -6.105727 -22.979378 -7.114620 -5.210369 78.731840 -4.776834 7.055704 -15.891660 2.514327 -0.001772 -0.002528 -0.000785 5.875905 6.111470 1.085989 128.528678 65.123574 148.234896 6.418600 12.362004 -0.276255 -0.000976 0.003096 -0.000432
-13.799209 126.912453 26.979608 -166.529749 -49.661105 -2.762250 -3.066013 26.273408 -0.180552 -0.470106 4.394081 0.077207 -0.810627 7.019199 0.084853 -2.465655 21.550138 -0.034866 -0.660949 16.498405 -1.280816 -0.401883 -8.407041 -1.190443 1.137705 3.864269 1.611661 3.929884 -7.793748 -9.552814 -92.608799 -60.115978 142.735077 4.714373 19.776168 -12.980698 -7.823863 0.297929 -0.368567 -5.745637 -4.555937 10.358251 78.805644 -60.714025 -120.377540 -5.790189 -18.368526 29.372822 -6.105807 -22.985142 -7.104306 -5.210246 78.729762 -4.785690 7.059232 -15.880789 2.506493 -0.001558 -0.002826 -0.000690 5.861589 6.114139 1.081230 128.529547 65.120945 148.222860 6.411614 12.353097 -0.262463 -0.000478 0.003511 -0.000212
-13.798542 126.912826 26.978881 -166.545131 -49.660077 -2.747526 -3.069765 26.277669 -0.192380 -0.495866 4.409439 0.067646 -0.794830 7.013141 0.086886 -2.463965 21.547242 -0.039529 -0.546962 16.430700 -1.230317 -0.272018 -8.497023 -1.165792 1.125589 3.860109 1.606088 3.919842 -7.794125 -9.548684 -92.611424 -60.127773 142.739381 4.718587 19.788682 -12.958564 -7.900096 0.265182 -0.406778 -5.862748 -4.645513 10.367723 78.070945 -60.445075 -119.925566 -5.549056 -18.315318 29.322808 -6.104453 -22.985274 -7.093002 -5.228577 78.724923 -4.814464 7.051788 -15.877043 2.506384 -0.001712 -0.003263 -0.000758 5.850272 6.120883 1.074092 128.521476 65.120512 148.200880 6.413618 12.360672 -0.273300 -0.001671 0.007457 -0.000740
-13.797057 126.912913 26.978279 -166.557931 -49.656943 -2.739782 -3.072904 26.280967 -0.199011 -0.497122 4.411105 0.066639 -0.811037 7.030125 0.084161 -2.456619 21.535349 -0.045897 -0.438546 16.366908 -1.183231 -0.149008 -8.586704 -1.146209 1.114685 3.854933 1.601349 3.908362 -7.795150 -9.544304 -92.611265 -60.138157 142.743942 4.720298 19.791054 -12.949376 -7.958699 0.229472 -0.425748 -6.027058 -4.714504 10.390833 77.379933 -60.193689 -119.505535 -5.324129 -18.264545 29.244036 -6.109429 -22.989006 -7.073871 -5.263492 78.719424 -4.863441 7.055062 -15.863692 2.504476 -0.000411 -0.003419 -0.000182 5.836233 6.125704 1.071360 128.515373 65.120563 148.182484 6.410453 12.362951 -0.283057 -0.003171 0.009821 -0.001405
-13.796935 126.912899 26.978054 -166.562938 -49.653278 -2.730359 -3.094052 26.291374 -0.215389 -0.500079 4.415958 0.064338 -0.825647 7.044975 0.080653 -2.505469 21.570968 -0.072440 -0.277656 16.249926 -1.143274 -0.031728 -8.675523 -1.131471 1.178119 3.789216 1.593998 3.879126 -7.792790 -9.539753 -92.607783 -60.147635 142.748246 4.719105 19.816919 -12.971250 -7.957970 0.129512 -0.432906 -6.222566 -4.756598 10.433490 76.735001 -59.964780 -119.113434 -5.127867 -18.205707 29.156371 -6.112378 -22.998762 -7.070901 -5.279334 78.720854 -4.887390 7.063423 -15.832371 2.499929 0.000297 -0.002150 0.000132 5.816373 6.132707 1.060188 128.517734 65.121816 148.167216 6.390478 12.325406 -0.190132 0.000319 0.001573 0.000141
-13.796205 126.912746 26.977894 -166.583668 -49.649052 -2.713555 -3.136154 26.320533 -0.240526 -0.505021 4.425464 0.061167 -0.787066 7.015572 0.079008 -2.532649 21.594981 -0.080719 -0.162801 16.167781 -1.108337 0.080404 -8.763528 -1.120399 1.199595 3.754442 1.583698 3.850456 -7.789879 -9.536212 -92.596707 -60.152324 142.755135 4.717498 19.814909 -12.957444 -7.982334 0.062473 -0.437940 -6.461161 -4.784333 10.490606 76.133493 -59.766844 -118.742953 -4.960144 -18.130938 29.073037 -6.108979 -23.004378 -7.061830 -5.293015 78.716390 -4.910251 7.070104 -15.818874 2.498022 0.000772 -0.002376 0.000342 5.814113 6.135281 1.055911 128.520888 65.124324 148.156471 6.386380 12.305668 -0.131340 0.000785 -0.004049 0.000348
-13.795698 126.912099 26.978224 -166.595714 -49.641185 -2.702749 -3.154222 26.331399 -0.250584 -0.507856 4.430926 0.060332 -0.776953 7.005985 0.075364 -2.558641 21.622131 -0.083543 -0.055497 16.085426 -1.078757 0.185733 -8.851320 -1.113315 1.205912 3.716209 1.564410 3.835691 -7.787022 -9.529517 -92.573156 -60.158558 142.740176 4.723090 19.806957 -12.932677 -8.009667 -0.010177 -0.443178 -6.716024 -4.795958 10.566718 75.581363 -59.606318 -118.399600 -4.806959 -18.034927 28.989091 -6.109072 -23.013174 -7.054905 -5.303313 78.712893 -4.927618 7.073478 -15.805990 2.496757 0.000721 -0.002216 0.000319 5.816633 6.130071 1.051561 128.521164 65.125180 148.165973 6.380486 12.303451 -0.130347 0.007042 -0.006218 0.003120
-13.795115 126.911829 26.978281 -166.616547 -49.636647 -2.687679 -3.157842 26.340978 -0.254647 -0.504574 4.428871 0.059108 -0.822198 7.061315 0.080430 -2.543931 21.598833 -0.092347 0.043711 16.003739 -1.054698 0.283729 -8.938133 -1.110290 1.211613 3.678669 1.543606 3.842029 -7.790466 -9.526544 -92.551244 -60.166332 142.695861 4.730500 19.798944 -12.924263 -8.043548 -0.084949 -0.447727 -6.975422 -4.793319 10.660217 75.085694 -59.484288 -118.090756 -4.664514 -17.916679 28.903597 -6.108367 -23.021196 -7.043908 -5.311896 78.711804 -4.946235 7.069313 -15.787091 2.497633 0.000682 -0.001133 0.000302 5.811773 6.131755 1.046414 128.527370 65.127026 148.159383 6.384330 12.303783 -0.134448 0.005258 -0.005732 0.002329
-13.795340 126.912384 26.977832 -166.620814 -49.638542 -2.682936 -3.161141 26.347624 -0.257777 -0.510660 4.437007 0.059928 -0.825340 7.065695 0.081211 -2.570270 21.627303 -0.088546 0.122489 15.931723 -1.047048 0.388496 -9.031933 -1.105161 1.189744 3.641897 1.519562 3.877153 -7.793868 -9.525702 -92.537767 -60.169043 142.686877 4.703048 19.814931 -12.985110 -8.083623 -0.160622 -0.451058 -7.233730 -4.775492 10.765606 74.651769 -59.400753 -117.820454 -4.533994 -17.781742 28.820173 -6.121268 -23.021692 -7.037993 -5.309714 78.710567 -4.954676 7.064573 -15.768502 2.493409 0.001233 -0.000505 0.000546 5.780637 6.147126 1.024200 128.518831 65.121859 148.124775 6.394759 12.300962 -0.132760 0.001209 -0.002259 0.000536
-13.795092 126.912333 26.977882 -166.633599 -49.636408 -2.675480 -3.177231 26.364117 -0.258626 -0.513765 4.443228 0.059868 -0.815696 7.057634 0.076420 -2.577832 21.632918 -0.088695 0.195266 15.875681 -1.018862 0.475910 -9.116844 -1.113388 1.187007 3.623054 1.507228 3.855504 -7.797325 -9.519696 -92.505106 -60.172114 142.680197 4.691762 19.827868 -12.999281 -8.104938 -0.198951 -0.452445 -7.530254 -4.754629 10.891207 74.283142 -59.352642 -117.591827 -4.417181 -17.634509 28.733311 -6.128307 -23.025361 -7.031912 -5.313098 78.706717 -4.962515 7.062140 -15.755980 2.486559 0.001157 -0.000419 0.000513 5.774810 6.149167 1.010054 128.533328 65.122623 148.141193 6.411548 12.313276 -0.167895 0.005245 -0.000148 0.002324
-13.793964 126.911889 26.978250 -166.660115 -49.631597 -2.663970 -3.182534 26.379222 -0.251782 -0.546201 4.477798 0.072544 -0.794385 7.038400 0.062905 -2.572884 21.619796 -0.096175 0.277843 15.812344 -0.983319 0.546543 -9.193232 -1.136224 1.167214 3.609680 1.494674 3.859175 -7.809197 -9.513112 -92.439102 -60.172430 142.594187 4.718085 19.830568 -12.954867 -8.126825 -0.238736 -0.452696 -7.823447 -4.721083 11.024529 73.970824 -59.331344 -117.399132 -4.314407 -17.482352 28.639471 -6.129019 -23.030426 -7.020604 -5.325280 78.698662 -4.978333 7.067746 -15.748786 2.481196 0.001025 -0.000926 0.000454 5.780842 6.144097 1.002229 128.535560 65.116802 148.139251 6.454192 12.353146 -0.253802 0.001428 0.013154 0.000633
